<svg xmlns="http://www.w3.org/2000/svg" width="850" height="1100" viewBox="0 0 850 1100">
  <rect width="100%" height="100%" fill="#ffffff"/>
  <text x="50" y="60" font-size="30" font-weight="700">SisenseDashboard</text>
  <text x="50" y="90" font-size="14">Acme Industrial Co.</text>
  <text x="600" y="80" font-size="14">SisenseDashboard #: 2025-0091</text>
  <text x="600" y="100" font-size="14">Date: 2025-01-14</text>
  <text x="600" y="120" font-size="14">Due: 2025-01-29</text>

  <rect x="50" y="150" width="380" height="100" fill="#f0f9ff" stroke="#cbd5e1"/>
  <text x="60" y="170" font-size="13" font-weight="600">Bill To</text>
  <text x="60" y="192" font-size="12">Fabrikam Inc.</text>
  <text x="60" y="212" font-size="12">Customer ID: F-4411</text>

  <rect x="450" y="150" width="350" height="100" fill="#fff7ed" stroke="#fed7aa"/>
  <text x="460" y="170" font-size="13" font-weight="600">Ship To</text>
  <text x="460" y="192" font-size="12">Fabrikam DC, Chicago</text>

  <text x="50" y="280" font-size="14" font-weight="600">Details</text>
  <rect x="50" y="292" width="750" height="28" fill="#e5e7eb"/>
  <text x="60" y="310" font-size="12" font-weight="600">Item</text>
  <text x="240" y="310" font-size="12" font-weight="600">Description</text>
  <text x="520" y="310" font-size="12" font-weight="600">Qty</text>
  <text x="580" y="310" font-size="12" font-weight="600">Unit</text>
  <text x="660" y="310" font-size="12" font-weight="600">Total</text>

  <text x="60" y="342" font-size="12">HJ-1120</text>
  <text x="240" y="342" font-size="12">Thin-Jam Hex Nut 0</text>
  <text x="520" y="342" font-size="12">100</text>
  <text x="580" y="342" font-size="12">0.07</text>
  <text x="660" y="342" font-size="12">7.00</text>

  <text x="60" y="368" font-size="12">HJ-1130</text>
  <text x="240" y="368" font-size="12">Thin-Jam Hex Nut 1</text>
  <text x="520" y="368" font-size="12">120</text>
  <text x="580" y="368" font-size="12">0.07</text>
  <text x="660" y="368" font-size="12">8.40</text>

  <line x1="50" y1="400" x2="800" y2="400" stroke="#ddd"/>
  <text x="560" y="430" font-size="12">Subtotal:</text>
  <text x="720" y="430" font-size="12">15.40</text>
  <text x="560" y="450" font-size="12">Tax (6%):</text>
  <text x="720" y="450" font-size="12">0.92</text>
  <text x="560" y="470" font-size="12">Freight:</text>
  <text x="720" y="470" font-size="12">9.90</text>
  <text x="560" y="490" font-size="14" font-weight="600">Total:</text>
  <text x="720" y="490" font-size="14" font-weight="600">26.22</text>
</svg>
