<svg xmlns="http://www.w3.org/2000/svg" width="850" height="1100" viewBox="0 0 850 1100">
  <rect width="100%" height="100%" fill="#ffffff"/>
  <text x="50" y="70" font-size="28" font-weight="700">Sales SisenseDashboard</text>
  <text x="600" y="70" font-size="14">SisenseDashboard #: INV-7742</text>
  <text x="600" y="90" font-size="14">Order Date: 2024-11-03</text>
  <text x="600" y="110" font-size="14">Due Date: 2024-11-18</text>

  <text x="50" y="130" font-size="14">Supplier: Northwind Traders</text>
  <text x="50" y="148" font-size="14">Customer: Tailspin Toys</text>
  <text x="50" y="166" font-size="14">Customer ID: T-9920</text>

  <rect x="50" y="200" width="750" height="28" fill="#0ea5e9"/>
  <text x="60" y="219" font-size="12" font-weight="600" fill="#fff">SKU</text>
  <text x="180" y="219" font-size="12" font-weight="600" fill="#fff">Description</text>
  <text x="520" y="219" font-size="12" font-weight="600" fill="#fff">Qty</text>
  <text x="580" y="219" font-size="12" font-weight="600" fill="#fff">Unit</text>
  <text x="660" y="219" font-size="12" font-weight="600" fill="#fff">Total</text>

  <text x="60" y="250" font-size="12">DC-8732</text>
  <text x="180" y="250" font-size="12">Crown Race</text>
  <text x="520" y="250" font-size="12">2</text>
  <text x="580" y="250" font-size="12">120.00</text>
  <text x="660" y="250" font-size="12">240.00</text>

  <text x="60" y="276" font-size="12">FW-1000</text>
  <text x="180" y="276" font-size="12">Flat Washer 1</text>
  <text x="520" y="276" font-size="12">50</text>
  <text x="580" y="276" font-size="12">0.10</text>
  <text x="660" y="276" font-size="12">5.00</text>

  <line x1="50" y1="310" x2="800" y2="310" stroke="#ddd"/>
  <text x="560" y="340" font-size="12">Subtotal:</text>
  <text x="720" y="340" font-size="12">245.00</text>
  <text x="560" y="360" font-size="12">Tax (7%):</text>
  <text x="720" y="360" font-size="12">17.15</text>
  <text x="560" y="380" font-size="12">Freight:</text>
  <text x="720" y="380" font-size="12">25.00</text>
  <text x="560" y="400" font-size="14" font-weight="600">Total:</text>
  <text x="720" y="400" font-size="14" font-weight="600">287.15</text>
</svg>
